<svg xmlns="http://www.w3.org/2000/svg" width="128" height="128" viewBox="0 0 32 32" fill="none" stroke-linecap="round" stroke-linejoin="round">
  <defs>
    <radialGradient id="body" cx=".3" cy=".2" r=".85"><stop stop-color="#52768b"/><stop offset=".48" stop-color="#26334d"/><stop offset="1" stop-color="#0a1127"/></radialGradient>
    <linearGradient id="violet" x1="0" y1="0" x2=".7" y2="1"><stop offset="0" stop-color="#f0c8ff"/><stop offset="0.5" stop-color="#b375ed"/><stop offset="1" stop-color="#6540a6"/></linearGradient>
  </defs>
  <g transform="scale(.5)">
    <path d="M23 14h18v8l9 9a9 9 0 0 1 3 7v12a7 7 0 0 1-7 7H18a7 7 0 0 1-7-7V38a9 9 0 0 1 3-7l9-9Z" fill="url(#body)" stroke="#d29aff" stroke-width="2.5"/>
    <rect x="21" y="7" width="22" height="10" rx="3" fill="url(#violet)" stroke="#efd2ff" stroke-width="1.5"/>
    <path d="M17 38v11" stroke="#edceff" stroke-width="3" opacity=".75"/>
    <path d="M33 29c-2 5-8 10-8 14a8 8 0 0 0 16 0c0-4-6-9-8-14Z" fill="url(#violet)"/>
    <path d="M29 44c0 2 1 3 3 3" fill="none" stroke="#fff" stroke-width="2"/>
  </g>
</svg>
